<svg width="16" height="16" viewBox="0 0 16 16" fill="none" xmlns="http://www.w3.org/2000/svg">
<path d="M10.6667 12.6667C10.3 12.6667 9.98622 12.5362 9.72533 12.2753C9.46444 12.0145 9.33378 11.7005 9.33333 11.3333V4.66668C9.33333 4.30001 9.464 3.98623 9.72533 3.72534C9.98667 3.46446 10.3004 3.33379 10.6667 3.33334C11.0329 3.3329 11.3469 3.46357 11.6087 3.72534C11.8704 3.98712 12.0009 4.3009 12 4.66668V11.3333C12 11.7 11.8696 12.014 11.6087 12.2753C11.3478 12.5367 11.0338 12.6671 10.6667 12.6667ZM5.33333 12.6667C4.96667 12.6667 4.65289 12.5362 4.392 12.2753C4.13111 12.0145 4.00044 11.7005 4 11.3333V4.66668C4 4.30001 4.13067 3.98623 4.392 3.72534C4.65333 3.46446 4.96711 3.33379 5.33333 3.33334C5.69956 3.3329 6.01356 3.46357 6.27533 3.72534C6.53711 3.98712 6.66756 4.3009 6.66667 4.66668V11.3333C6.66667 11.7 6.53622 12.014 6.27533 12.2753C6.01444 12.5367 5.70044 12.6671 5.33333 12.6667Z" fill="white"/>
</svg>
